<?xml version="1.0" encoding="utf-8"?>
<!-- Generator: Adobe Illustrator 24.1.1, SVG Export Plug-In . SVG Version: 6.00 Build 0)  -->
<svg version="1.1" id="Layer_1" xmlns="http://www.w3.org/2000/svg" xmlns:xlink="http://www.w3.org/1999/xlink" x="0px" y="0px"
	 viewBox="0 0 512 512" style="enable-background:new 0 0 512 512;" xml:space="preserve">
<style type="text/css">
	.st0{fill:#333333;}
</style>
<g id="XMLID_1_">
	<path id="XMLID_9_" class="st0" d="M512,248.1c0,4.7-1.9,8.4-5.6,12.1L268.1,499.4c-3.7,3.7-7.4,5.6-12.1,5.6s-8.4-1.9-12.1-5.6
		L5.6,260.2c-3.7-3.7-5.6-7.4-5.6-12.1s1.9-8.4,5.6-12.1l26.1-26.1c3.7-3.7,7.4-5.6,12.1-5.6s8.4,1.9,12.1,5.6L256,412.9l202-202
		c3.7-3.7,7.4-5.6,12.1-5.6s8.4,1.9,12.1,5.6l26.1,26.1C510.1,239.7,512,243.4,512,248.1z M512,51.7c0,4.7-1.9,8.4-5.6,12.1
		L268.1,302.1c-3.7,3.7-7.4,5.6-12.1,5.6s-8.4-1.9-12.1-5.6L5.6,62.8C1.9,59.1,0,55.4,0,50.7s1.9-8.4,5.6-12.1l26.1-26.1
		C35.4,8.8,39.1,7,43.8,7s8.4,1.9,12.1,5.6L256,215.5l202-202c3.7-3.7,7.4-5.6,12.1-5.6s8.4,1.9,12.1,5.6l26.1,26.1
		C510.1,43.3,512,47,512,51.7z"/>
</g>
</svg>
