<?xml version="1.0" encoding="utf-8"?>
<!-- Generator: Adobe Illustrator 24.1.1, SVG Export Plug-In . SVG Version: 6.00 Build 0)  -->
<svg version="1.1" id="Layer_1" xmlns="http://www.w3.org/2000/svg" xmlns:xlink="http://www.w3.org/1999/xlink" x="0px" y="0px"
	 viewBox="0 0 512 512" style="enable-background:new 0 0 512 512;" xml:space="preserve">
<style type="text/css">
	.st0{fill:#333333;}
</style>
<g id="XMLID_2_">
	<path id="XMLID_6_" class="st0" d="M306.5,469.6c0,4.5-1.8,8.1-5.4,11.7l-25.2,25.2c-3.6,3.6-7.2,5.4-11.7,5.4
		c-4.5,0-8.1-1.8-11.7-5.4L13.5,267.7c-3.6-3.6-5.4-7.2-5.4-11.7s1.8-8.1,5.4-11.7L252.4,5.4C256,1.8,259.6,0,264.1,0
		c4.5,0,8.1,1.8,11.7,5.4l25.2,25.2c3.6,3.6,5.4,7.2,5.4,11.7s-1.8,8.1-5.4,11.7L100.1,256L302,457.9
		C304.7,461.5,306.5,465.1,306.5,469.6z M503.9,469.6c0,4.5-1.8,8.1-5.4,11.7l-25.2,25.2c-3.6,3.6-7.2,5.4-11.7,5.4
		s-8.1-1.8-11.7-5.4L210,267.7c-3.6-3.6-5.4-7.2-5.4-11.7s1.8-8.1,5.4-11.7L448.9,5.4c3.6-3.6,7.2-5.4,11.7-5.4s8.1,1.8,11.7,5.4
		l25.2,25.2c3.6,3.6,5.4,7.2,5.4,11.7s-1.8,8.1-5.4,11.7L297.5,256l201.9,201.9C502.1,461.5,503.9,465.1,503.9,469.6z"/>
</g>
</svg>
