<?xml version="1.0" encoding="utf-8"?>
<!-- Generator: Adobe Illustrator 24.1.1, SVG Export Plug-In . SVG Version: 6.00 Build 0)  -->
<svg version="1.1" id="Layer_1" xmlns="http://www.w3.org/2000/svg" xmlns:xlink="http://www.w3.org/1999/xlink" x="0px" y="0px"
	 viewBox="0 0 512 512" style="enable-background:new 0 0 512 512;" xml:space="preserve">
<style type="text/css">
	.st0{fill:#333333;}
</style>
<g id="XMLID_1_">
	<path id="XMLID_9_" class="st0" d="M512,460.5c0,4.6-1.9,8.3-5.6,12.1l-26,26c-3.7,3.7-7.4,5.6-12.1,5.6c-4.6,0-8.3-1.9-12.1-5.6
		L256.9,297.3L55.7,498.6c-3.7,3.7-7.4,5.6-12.1,5.6s-8.3-1.9-12.1-5.6l-26-26c-3.7-3.7-5.6-7.4-5.6-12.1c0-4.6,1.9-8.3,5.6-12.1
		l238.4-238.4c3.7-3.7,7.4-5.6,12.1-5.6c4.6,0,8.3,1.9,12.1,5.6l238.4,238.4C510.1,452.2,512,456.8,512,460.5z M512,264.8
		c0,4.6-1.9,8.3-5.6,12.1l-26,26c-3.7,3.7-7.4,5.6-12.1,5.6c-4.6,0-8.3-1.9-12.1-5.6L256.9,100.6L55.7,301.9
		c-3.7,3.7-7.4,5.6-12.1,5.6s-8.3-1.9-12.1-5.6l-26-26c-3.7-3.7-5.6-7.4-5.6-12.1c0-4.6,1.9-8.3,5.6-12.1L243.9,13.4
		c3.7-3.7,7.4-5.6,12.1-5.6c4.6,0,8.3,1.9,12.1,5.6l238.4,238.4C510.1,256.5,512,260.2,512,264.8z"/>
</g>
</svg>
